<svg height="512pt" viewBox="-39 0 512 512" width="512pt" xmlns="http://www.w3.org/2000/svg"><path d="m400.320312 477.0625c19.394532-3.109375 34.214844-19.910156 34.214844-40.183594v-383.859375c0-29.285156-23.734375-53.019531-53.019531-53.019531h-297.433594c-29.285156 0-53.03125 23.734375-53.03125 53.019531v92.566407" fill="#a4b9bc"/><path d="m0 176.636719v282.34375c0 29.277343 23.730469 53.019531 53.019531 53.019531h297.433594c29.285156 0 53.027344-23.742188 53.027344-53.019531v-371.535157c0-29.277343-23.742188-53.019531-53.027344-53.019531h-208.234375zm0 0" fill="#e4f5f7"/><path d="m142.21875 123.617188v-89.191407l-142.21875 142.210938h89.199219c29.289062 0 53.019531-23.742188 53.019531-53.019531zm0 0" fill="#bfdadd"/><g fill="#4b5051"><path d="m327.703125 312.800781h-251.925781c-4.320313 0-7.820313-3.5-7.820313-7.820312 0-4.320313 3.5-7.820313 7.820313-7.820313h251.925781c4.320313 0 7.820313 3.5 7.820313 7.820313 0 4.320312-3.5 7.820312-7.820313 7.820312zm0 0"/><path d="m327.703125 358.230469h-251.925781c-4.320313 0-7.820313-3.503907-7.820313-7.824219s3.5-7.820312 7.820313-7.820312h251.925781c4.320313 0 7.820313 3.5 7.820313 7.820312s-3.5 7.824219-7.820313 7.824219zm0 0"/><path d="m327.703125 221.949219h-251.925781c-4.320313 0-7.820313-3.503907-7.820313-7.824219s3.5-7.820312 7.820313-7.820312h251.925781c4.320313 0 7.820313 3.5 7.820313 7.820312s-3.5 7.824219-7.820313 7.824219zm0 0"/><path d="m327.703125 267.375h-251.925781c-4.320313 0-7.820313-3.503906-7.820313-7.820312 0-4.320313 3.5-7.824219 7.820313-7.824219h251.925781c4.320313 0 7.820313 3.503906 7.820313 7.824219 0 4.316406-3.5 7.820312-7.820313 7.820312zm0 0"/></g></svg>