<svg viewBox="0 0 512 512" xmlns="http://www.w3.org/2000/svg"><path d="m511.914062 256c0-141.386719-114.59375-256-255.957031-256-141.359375 0-255.957031 114.613281-255.957031 256s114.597656 256 255.957031 256c141.363281 0 255.957031-114.613281 255.957031-256zm0 0" fill="#407fff"/><path d="m388.34375 36.863281c45.605469 46.226563 73.765625 109.710938 73.765625 179.785157 0 141.382812-114.597656 256-255.960937 256-48.453126 0-93.757813-13.46875-132.382813-36.863282 46.410156 47.046875 110.890625 76.214844 182.191406 76.214844 141.363281 0 255.957031-114.613281 255.957031-256 0-92.925781-49.503906-174.28125-123.570312-219.136719zm0 0" fill="#406aef"/><path d="m364.28125 343.878906c0 5.480469-2.792969 10.59375-7.425781 13.515625-28.167969 17.78125-61.546875 28.054688-97.324219 28.054688-35.773438 0-69.152344-10.273438-97.320312-28.054688-4.632813-2.921875-7.425782-8.035156-7.425782-13.515625 0-57.851562 46.882813-104.761718 104.746094-104.761718 28.921875 0 55.113281 11.734374 74.078125 30.699218 18.960937 18.941406 30.671875 45.136719 30.671875 74.0625zm0 0" fill="#e3faff"/><path d="m333.609375 269.816406c-14.757813-14.761718-33.894531-25.136718-55.285156-29.015625 2.359375 1.980469 4.632812 4.054688 6.808593 6.230469.210938.210938.417969.417969.625.628906 35.675782 36.242188 18.078126 97.808594-31.332031 109.832032-13.902343 3.382812-28.425781 5.171874-43.367187 5.171874-17.871094 0-35.144532-2.5625-51.464844-7.34375.789062.773438 1.660156 1.472657 2.613281 2.074219 28.171875 17.78125 61.550781 28.054688 97.324219 28.054688 35.785156 0 69.175781-10.277344 97.351562-28.070313 4.625-2.921875 7.394532-8.027344 7.394532-13.5.003906-28.925781-11.707032-55.121094-30.667969-74.0625zm0 0" fill="#ccf4ff"/><path d="m315.804688 182.832031c0-31.082031-25.191407-56.28125-56.273438-56.28125-31.078125 0-56.269531 25.199219-56.269531 56.28125 0 31.085938 25.191406 56.28125 56.269531 56.28125 31.082031 0 56.273438-25.195312 56.273438-56.28125zm0 0" fill="#48d8ff"/><path d="m276.179688 129.054688c10.285156 10.199218 16.660156 24.339843 16.660156 39.96875 0 31.085937-25.195313 56.285156-56.273438 56.285156-5.792968 0-11.382812-.878906-16.644531-2.507813 10.167969 10.082031 24.160156 16.3125 39.609375 16.3125 31.082031 0 56.273438-25.195312 56.273438-56.28125 0-25.285156-16.675782-46.675781-39.625-53.777343zm0 0" fill="#43c5ff"/></svg>