<?xml version="1.0"?>
<svg xmlns="http://www.w3.org/2000/svg" xmlns:xlink="http://www.w3.org/1999/xlink" viewBox="0 0 512 512" width="512"
     height="512">
    <linearGradient id="a" gradientUnits="userSpaceOnUse" x1="256" x2="256" y1="12" y2="488.823">
        <stop offset="0" stop-color="#00efd1"/>
        <stop offset="1" stop-color="#00acea"/>
    </linearGradient>
    <linearGradient id="b" x1="371.811" x2="371.811" xlink:href="#a" y1="12" y2="488.823"/>
    <path d="m450.462 318.688-34.607-15.695-9.895-15.993a133.217 133.217 0 0 0 62.04-112.5v-65.742a10.152 10.152 0 0 0 -5.459-8.825l-88.863-47.31a10.081 10.081 0 0 0 -9.55.055l-86.128 47.31a9.824 9.824 0 0 0 -5 8.77v66.971a133.1 133.1 0 0 0 11.554 55.271h-72.067a50.062 50.062 0 0 0 -39.652 19.583l-39.28 51.546-66.026 17.981a40.1 40.1 0 0 0 -29.529 38.457v25.247a40.459 40.459 0 0 0 40.2 40.186h4.8a50.329 50.329 0 0 0 96.983 0h147.055a50.329 50.329 0 0 0 96.983 0h9.78a40.459 40.459 0 0 0 40.199-40.186v-28.814a40.112 40.112 0 0 0 -23.538-36.312zm-157.462-204.007 76.338-41.867 78.662 41.946v59.74a113.461 113.461 0 0 1 -69.63 104.456c-.023.009-.128.02-.151.029l-9.574 4.118-7.79-3.481a113.349 113.349 0 0 1 -67.855-103.893zm-161.511 325.871a30.341 30.341 0 1 1 30.342-30.341 30.375 30.375 0 0 1 -30.342 30.341zm244.041 0a30.341 30.341 0 1 1 30.341-30.341 30.376 30.376 0 0 1 -30.341 30.341zm78.47-56.738a20.438 20.438 0 0 1 -20.2 20.186h-8.365a50.327 50.327 0 0 0 -99.812 0h-144.223a50.327 50.327 0 0 0 -99.812 0h-3.388a20.438 20.438 0 0 1 -20.2-20.186v-25.247a20.073 20.073 0 0 1 14.8-19.18l69.215-18.887a10.109 10.109 0 0 0 5.36-3.588l41.351-54.21a29.989 29.989 0 0 1 23.761-11.702h83.352a135.543 135.543 0 0 0 56.77 47.01l11.982 5.191a10.046 10.046 0 0 0 7.96-.01l13.48-5.825c.691-.292 1.365-.611 2.049-.914l12.344 19.709a9.995 9.995 0 0 0 4.337 3.8l37.426 16.94a20.07 20.07 0 0 1 11.813 18.099z"
          fill="url(#a)"/>
    <path d="m349.024 209.911c.126.133.248.271.379.4s.291.256.439.381.27.238.412.346.317.221.477.329.287.2.435.288c.17.1.346.188.52.278.148.077.293.161.443.23.183.084.373.151.56.224.149.057.295.122.447.173.2.065.4.113.6.165.148.039.293.087.442.12.211.045.426.072.639.1.141.021.281.052.421.067.261.028.522.035.784.043.1 0 .19.015.286.015.284 0 .568-.013.852-.037.052 0 .1-.014.156-.019.229-.024.459-.05.686-.089.093-.016.185-.04.277-.059.186-.037.371-.074.555-.121.112-.03.223-.068.334-.1.162-.048.323-.094.483-.151.124-.044.246-.1.369-.146.143-.058.288-.113.429-.178s.257-.127.385-.192.263-.132.392-.205.256-.156.382-.236.248-.152.369-.236.244-.18.366-.272c.089-.068.182-.129.269-.2l54.375-44.238a10 10 0 1 0 -12.621-15.514l-46.8 38.076-17.007-19.916a10 10 0 1 0 -15.209 12.987l23.347 27.341c.103.122.218.229.327.346z"
          fill="url(#b)"/>
</svg>
