<?xml version="1.0" encoding="UTF-8" standalone="no"?>
<svg
        xmlns:dc="http://purl.org/dc/elements/1.1/"
        xmlns:cc="http://creativecommons.org/ns#"
        xmlns:rdf="http://www.w3.org/1999/02/22-rdf-syntax-ns#"
        xmlns:svg="http://www.w3.org/2000/svg"
        xmlns="http://www.w3.org/2000/svg"
        xmlns:xlink="http://www.w3.org/1999/xlink"
        id="svg917"
        version="1.1"
        height="512"
        width="512"
        viewBox="0 0 512 512">
    <metadata
            id="metadata923">
        <rdf:RDF>
            <cc:Work
                    rdf:about="">
                <dc:format>image/svg+xml</dc:format>
                <dc:type
                        rdf:resource="http://purl.org/dc/dcmitype/StillImage"/>
                <dc:title></dc:title>
            </cc:Work>
        </rdf:RDF>
    </metadata>
    <defs
            id="defs921">


    </defs>
    <linearGradient
            y2="488.823"
            y1="12"
            x2="256"
            x1="256"
            gradientUnits="userSpaceOnUse"
            id="a">
        <stop
                id="stop907"
                stop-color="#00efd1"
                offset="0"/>
        <stop
                id="stop909"
                stop-color="#00acea"
                offset="1"/>
    </linearGradient>
    <linearGradient
            gradientTransform="matrix(2.3697415,0,0,2.3697415,-367.33894,-366.74899)"
            y2="488.823"
            y1="12"
            xlink:href="#a"
            x2="371.811"
            x1="371.811"
            id="b"/>
    <path
            style="fill:#d4e1f4;fill-opacity:0.99473685;stroke-width:2.36974144"
            id="path5385"
            d="M 717.56946,407.09237 635.55983,369.89928 612.11122,332 A 315.68984,315.68984 0 0 0 759.12998,65.4041 V -90.38745 a 24.057614,24.057614 0 0 0 -12.93641,-20.91296 L 535.61124,-223.41287 a 23.889362,23.889362 0 0 0 -22.63103,0.13033 l -204.10108,112.11246 a 23.280339,23.280339 0 0 0 -11.84871,20.78263 V 68.316502 A 315.41257,315.41257 0 0 0 324.41041,199.29449 H 153.63026 a 118.63399,118.63399 0 0 0 -93.964984,46.40663 l -93.083441,122.1507 -156.464545,42.61031 a 95.026628,95.026628 0 0 0 -69.97609,91.13316 v 59.82886 a 95.877366,95.877366 0 0 0 95.2636,95.23041 h 11.37476 a 119.26671,119.26671 0 0 0 229.824619,0 H 425.0865 a 119.26671,119.26671 0 0 0 229.82463,0 h 23.17607 a 95.877366,95.877366 0 0 0 95.26123,-95.23041 v -68.28174 a 95.055066,95.055066 0 0 0 -55.77897,-86.05004 z m -373.14421,-483.44384 180.90131,-99.21395 186.4086,99.401164 V 65.4041 A 268.87323,268.87323 0 0 1 546.73007,312.93779 c -0.0544,0.0214 -0.30333,0.0474 -0.35783,0.0687 l -22.68791,9.7586 -18.46028,-8.24907 A 268.60781,268.60781 0 0 1 344.42525,68.316502 Z m -382.7393,772.23 a 71.900323,71.900323 0 1 1 71.902683,-71.90032 71.980894,71.980894 0 0 1 -71.902683,71.90032 z m 578.31405,0 A 71.900323,71.900323 0 1 1 611.90033,623.97821 71.983263,71.983263 0 0 1 540,695.87853 Z M 725.9536,561.42415 a 48.432775,48.432775 0 0 1 -47.86877,47.8356 h -19.82289 a 119.26197,119.26197 0 0 0 -236.52862,0 H 79.962111 a 119.26197,119.26197 0 0 0 -236.528631,0 h -8.02868 a 48.432775,48.432775 0 0 1 -47.86878,-47.8356 v -59.82886 a 47.567818,47.567818 0 0 1 35.07218,-45.45164 L -13.370155,411.38633 A 23.955716,23.955716 0 0 0 -0.668347,402.8837 L 97.32283,274.42002 a 71.066173,71.066173 0 0 1 56.30743,-27.7307 h 197.52268 a 321.20186,321.20186 0 0 0 134.53021,111.40153 l 28.39425,12.30134 a 23.806422,23.806422 0 0 0 18.86314,-0.0237 l 31.94412,-13.80373 c 1.63748,-0.69197 3.23469,-1.44792 4.85559,-2.16594 l 29.25209,46.70523 a 23.685565,23.685565 0 0 0 10.27757,9.00501 l 88.68994,40.14343 a 47.56071,47.56071 0 0 1 27.99375,42.88994 z"/>
    <path
            style="fill:#0635c9;stroke-width:2.36974144;fill-opacity:0.81052631"
            id="path913"
            d="M 707.3422,395.44384 625.33257,358.25075 601.88396,320.35147 A 315.68984,315.68984 0 0 0 748.90272,53.75557 v -155.79155 a 24.057614,24.057614 0 0 0 -12.93641,-20.91296 L 525.38398,-235.0614 a 23.889362,23.889362 0 0 0 -22.63103,0.13033 l -204.10108,112.11246 a 23.280339,23.280339 0 0 0 -11.84871,20.78263 V 56.667972 A 315.41257,315.41257 0 0 0 314.18315,187.64596 H 143.403 a 118.63399,118.63399 0 0 0 -93.964984,46.40663 l -93.083441,122.1507 -156.464545,42.61031 a 95.026628,95.026628 0 0 0 -69.97609,91.13316 v 59.82886 a 95.877366,95.877366 0 0 0 95.2636,95.23041 h 11.37476 a 119.26671,119.26671 0 0 0 229.824619,0 H 414.85924 a 119.26671,119.26671 0 0 0 229.82463,0 h 23.17607 a 95.877366,95.877366 0 0 0 95.26123,-95.23041 V 481.49388 A 95.055066,95.055066 0 0 0 707.3422,395.44384 Z M 334.19799,-88 515.0993,-187.21395 701.5079,-87.812786 V 53.75557 A 268.87323,268.87323 0 0 1 536.50281,301.28926 c -0.0544,0.0214 -0.30333,0.0474 -0.35783,0.0687 l -22.68791,9.7586 -18.46028,-8.24907 A 268.60781,268.60781 0 0 1 334.19799,56.667972 Z M -48.54131,684.23 A 71.900323,71.900323 0 1 1 23.361373,612.32968 71.980894,71.980894 0 0 1 -48.54131,684.23 Z m 578.31405,0 A 71.900323,71.900323 0 1 1 601.67307,612.32968 71.983263,71.983263 0 0 1 529.77274,684.23 Z m 185.9536,-134.45438 a 48.432775,48.432775 0 0 1 -47.86877,47.8356 h -19.82289 a 119.26197,119.26197 0 0 0 -236.52862,0 H 69.734851 a 119.26197,119.26197 0 0 0 -236.528631,0 h -8.02868 a 48.432775,48.432775 0 0 1 -47.86878,-47.8356 v -59.82886 a 47.567818,47.567818 0 0 1 35.07218,-45.45164 L -23.597415,399.7378 a 23.955716,23.955716 0 0 0 12.701808,-8.50263 L 87.095575,262.77149 A 71.066173,71.066173 0 0 1 143.403,235.04079 h 197.52268 a 321.20186,321.20186 0 0 0 134.53021,111.40153 l 28.39425,12.30134 a 23.806422,23.806422 0 0 0 18.86314,-0.0237 l 31.94412,-13.80373 c 1.63748,-0.69197 3.23469,-1.44792 4.85559,-2.16594 l 29.25209,46.70523 a 23.685565,23.685565 0 0 0 10.27757,9.00501 l 88.68994,40.14343 a 47.56071,47.56071 0 0 1 27.99375,42.88994 z"/>
    <g
            style="fill:none"
            transform="matrix(1.9953746,0,0.03265684,1.9841139,740.84275,56.780786)"
            id="g5189">


        <g
                style="fill:none"
                id="g5187">


        </g>

        <g
                style="fill:none"
                transform="matrix(1.1269099,0,0,1.1248355,-512.2597,-56.39303)"
                id="g5300">
            <path
                    style="fill:none;stroke-width:1.0010016"
                    d="M 288.5862,115.20262 C 276.38884,95.62346 269.92657,73.003217 269.93833,49.922051 l 0.002,-67.104216 86.32155,-47.40482 88.78845,47.40482 -0.002,65.871752 c -0.003,46.393793 -25.95691,88.871753 -67.19359,109.969953 -2.73305,1.40281 -5.53009,2.71242 -8.39013,3.92786 l -13.51019,5.84168 -11.98983,-5.23046 c -22.87167,-10.03006 -42.17813,-26.76253 -55.37843,-47.996 z"
                    id="path5297"/>
        </g>
    </g>
    <path
            style="fill:#1ae5be;fill-opacity:1;stroke-width:2.36974144"
            id="path915"
            d="m 467.28815,129.45388 c 0.2986,0.31517 0.58771,0.64219 0.89814,0.9479 0.31043,0.30569 0.68959,0.60665 1.04032,0.90287 0.35072,0.29622 0.63983,0.56399 0.97632,0.81993 0.33652,0.25592 0.75121,0.52371 1.13037,0.77963 0.37916,0.25594 0.68012,0.47396 1.03084,0.68249 0.40286,0.23699 0.81993,0.44552 1.23226,0.65879 0.35074,0.18247 0.69434,0.38153 1.04981,0.54505 0.43366,0.19905 0.88391,0.35782 1.32704,0.53082 0.3531,0.13508 0.69909,0.28911 1.05928,0.40996 0.47394,0.15403 0.9479,0.26778 1.42184,0.391 0.35074,0.0925 0.69434,0.20618 1.04743,0.28438 0.50002,0.10658 1.00951,0.17062 1.51427,0.23697 0.33413,0.0497 0.6659,0.12325 0.99766,0.15878 0.6185,0.0664 1.237,0.0829 1.85788,0.10187 0.23697,0 0.45024,0.0355 0.67774,0.0355 0.67301,0 1.34602,-0.0308 2.01902,-0.0876 0.12325,0 0.23698,-0.0332 0.36968,-0.045 0.54267,-0.0568 1.08771,-0.11855 1.62564,-0.21091 0.22039,-0.0379 0.43841,-0.0948 0.65643,-0.13978 0.44077,-0.0876 0.87916,-0.17536 1.3152,-0.28673 0.26541,-0.0711 0.52846,-0.16115 0.79149,-0.23699 0.3839,-0.1137 0.76543,-0.22275 1.14459,-0.35782 0.29385,-0.10431 0.58296,-0.23698 0.87443,-0.34598 0.33888,-0.1375 0.68249,-0.26779 1.01662,-0.42182 0.33413,-0.15403 0.60902,-0.30096 0.91235,-0.45499 0.30332,-0.15403 0.62324,-0.3128 0.92894,-0.4858 0.3057,-0.17299 0.60666,-0.36968 0.90524,-0.55926 0.29858,-0.18958 0.58769,-0.36019 0.87443,-0.55925 0.28675,-0.19905 0.57822,-0.42655 0.86733,-0.64457 0.21091,-0.16114 0.43129,-0.30569 0.63746,-0.47396 L 628.34289,26.79669 A 23.697414,23.697414 0 1 0 598.43439,-9.9674864 L 487.53049,80.262784 447.2283,33.067024 a 23.697414,23.697414 0 1 0 -36.04141,30.775825 l 55.32636,64.791101 c 0.24408,0.28911 0.5166,0.54266 0.7749,0.81993 z"/>
    <path
            d="M 707.3422,395.44384 625.33257,358.25075 601.88396,320.35147 A 315.68984,315.68984 0 0 0 748.90272,53.75557 v -155.79155 a 24.057614,24.057614 0 0 0 -12.93641,-20.91296 L 525.38398,-235.0614 a 23.889362,23.889362 0 0 0 -22.63103,0.13033 l -204.10108,112.11246 a 23.280339,23.280339 0 0 0 -11.84871,20.78263 V 56.667972 A 315.41257,315.41257 0 0 0 314.18315,187.64596 H 143.403 a 118.63399,118.63399 0 0 0 -93.964984,46.40663 l -93.083441,122.1507 -156.464545,42.61031 a 95.026628,95.026628 0 0 0 -69.97609,91.13316 v 59.82886 a 95.877366,95.877366 0 0 0 95.2636,95.23041 h 11.37476 a 119.26671,119.26671 0 0 0 229.824619,0 H 414.85924 a 119.26671,119.26671 0 0 0 229.82463,0 h 23.17607 a 95.877366,95.877366 0 0 0 95.26123,-95.23041 V 481.49388 A 95.055066,95.055066 0 0 0 707.3422,395.44384 Z M 334.19799,-88 515.0993,-187.21395 701.5079,-87.812786 V 53.75557 A 268.87323,268.87323 0 0 1 536.50281,301.28926 c -0.0544,0.0214 -0.30333,0.0474 -0.35783,0.0687 l -22.68791,9.7586 -18.46028,-8.24907 A 268.60781,268.60781 0 0 1 334.19799,56.667972 Z M -48.54131,684.23 A 71.900323,71.900323 0 1 1 23.361373,612.32968 71.980894,71.980894 0 0 1 -48.54131,684.23 Z m 578.31405,0 A 71.900323,71.900323 0 1 1 601.67307,612.32968 71.983263,71.983263 0 0 1 529.77274,684.23 Z m 185.9536,-134.45438 a 48.432775,48.432775 0 0 1 -47.86877,47.8356 h -19.82289 a 119.26197,119.26197 0 0 0 -236.52862,0 H 69.734851 a 119.26197,119.26197 0 0 0 -236.528631,0 h -8.02868 a 48.432775,48.432775 0 0 1 -47.86878,-47.8356 v -59.82886 a 47.567818,47.567818 0 0 1 35.07218,-45.45164 L -23.597415,399.7378 a 23.955716,23.955716 0 0 0 12.701808,-8.50263 L 87.095575,262.77149 A 71.066173,71.066173 0 0 1 143.403,235.04079 h 197.52268 a 321.20186,321.20186 0 0 0 134.53021,111.40153 l 28.39425,12.30134 a 23.806422,23.806422 0 0 0 18.86314,-0.0237 l 31.94412,-13.80373 c 1.63748,-0.69197 3.23469,-1.44792 4.85559,-2.16594 l 29.25209,46.70523 a 23.685565,23.685565 0 0 0 10.27757,9.00501 l 88.68994,40.14343 a 47.56071,47.56071 0 0 1 27.99375,42.88994 z"
            id="path5352"
            style="fill:#0635c9;stroke-width:2.36974144;fill-opacity:0.81052631"/>
</svg>
