<?xml version="1.0" encoding="iso-8859-1"?>
<!-- Generator: Adobe Illustrator 21.0.0, SVG Export Plug-In . SVG Version: 6.00 Build 0)  -->
<svg xmlns="http://www.w3.org/2000/svg" xmlns:xlink="http://www.w3.org/1999/xlink" version="1.1" id="Capa_1" x="0px" y="0px" viewBox="0 0 512 512" style="enable-background:new 0 0 512 512;" xml:space="preserve" width="512" height="512">
<g>
	<path style="fill:#EBEEF2;" d="M371.514,24.322v463.355c0,13.433-10.89,24.322-24.322,24.322H26.802   c-13.433,0-24.322-10.89-24.322-24.322V118.299L120.778,0h226.413C360.624,0,371.514,10.89,371.514,24.322z"/>
	<path style="fill:#C9CDD3;" d="M347.191,0h-25.972c13.433,0,24.323,10.89,24.323,24.322v463.355   c0,13.433-10.89,24.322-24.323,24.322h25.972c13.433,0,24.322-10.89,24.322-24.322V24.322C371.514,10.89,360.624,0,347.191,0z"/>
	<path style="fill:#C9CDD3;" d="M120.778,0L2.479,118.299h96.97c11.78,0,21.329-9.549,21.329-21.329V0z"/>
	<path style="fill:#3872B7;" d="M240.581,147.254H133.412c-4.142,0-7.5-3.357-7.5-7.5s3.358-7.5,7.5-7.5h107.169   c4.142,0,7.5,3.357,7.5,7.5S244.723,147.254,240.581,147.254z"/>
	<g>
		<path style="fill:#52668D;" d="M317.169,228.967H56.824c-4.142,0-7.5-3.357-7.5-7.5s3.358-7.5,7.5-7.5h260.346    c4.142,0,7.5,3.357,7.5,7.5S321.311,228.967,317.169,228.967z"/>
		<path style="fill:#52668D;" d="M317.169,292.214H56.824c-4.142,0-7.5-3.357-7.5-7.5s3.358-7.5,7.5-7.5h260.346    c4.142,0,7.5,3.357,7.5,7.5S321.311,292.214,317.169,292.214z"/>
		<path style="fill:#52668D;" d="M317.169,355.461H56.824c-4.142,0-7.5-3.357-7.5-7.5s3.358-7.5,7.5-7.5h260.346    c4.142,0,7.5,3.357,7.5,7.5S321.311,355.461,317.169,355.461z"/>
		<path style="fill:#52668D;" d="M317.169,418.709H56.824c-4.142,0-7.5-3.357-7.5-7.5s3.358-7.5,7.5-7.5h260.346    c4.142,0,7.5,3.357,7.5,7.5S321.311,418.709,317.169,418.709z"/>
	</g>
	<path style="fill:#6FBC89;" d="M439.278,185.354c-1.871-5.677-6.638-9.947-12.543-10.873c-17.996-2.823-36.437-4.305-55.227-4.305   s-37.231,1.482-55.227,4.305c-5.905,0.926-10.672,5.196-12.543,10.873c-9.797,29.722-32.054,53.778-60.604,65.959   c-6.373,2.719-10.279,9.257-9.553,16.149c8.444,80.085,60.618,153.261,131.991,182.378c3.8,1.55,8.071,1.55,11.871,0   c71.373-29.117,123.547-102.293,131.991-182.378c0.727-6.891-3.179-13.429-9.553-16.149   C471.332,239.132,449.075,215.076,439.278,185.354z"/>
	<path style="fill:#40904B;" d="M499.882,251.313c-28.55-12.181-50.807-36.237-60.604-65.959   c-1.871-5.677-6.638-9.947-12.543-10.873c-17.996-2.823-36.437-4.305-55.227-4.305c-5.077,0-10.126,0.117-15.15,0.331   c13.57,0.577,26.943,1.914,40.077,3.974c5.906,0.927,10.672,5.196,12.543,10.873c9.797,29.722,32.054,53.778,60.604,65.959   c6.373,2.719,10.279,9.257,9.553,16.148c-8.076,76.597-56.158,146.867-122.777,178.32c3.034,1.433,6.105,2.79,9.214,4.058   c3.8,1.551,8.071,1.551,11.871,0c71.373-29.117,123.547-102.293,131.991-182.378C510.161,260.57,506.255,254.032,499.882,251.313z"/>
	<path style="fill:#F6BB93;" d="M341.209,247.192v11.016c0,16.734,13.566,30.299,30.299,30.299h0   c16.734,0,30.299-13.566,30.299-30.299v-11.016c0-16.734-13.566-30.299-30.299-30.299h0   C354.774,216.893,341.209,230.458,341.209,247.192z"/>
	<path style="fill:#52668D;" d="M417.42,307.781c-3.584-5.646-11.078-7.388-16.709-3.78c-8.438,5.406-18.459,8.547-29.203,8.547   c-10.745,0-20.765-3.141-29.203-8.547c-5.631-3.607-13.125-1.865-16.709,3.78c-5.334,8.402-8.426,18.366-8.426,29.056v23.474   c0,7.059,5.723,12.782,12.782,12.782h83.114c7.059,0,12.782-5.723,12.782-12.782v-23.474   C425.847,326.147,422.755,316.183,417.42,307.781z"/>
	<path style="fill:#EBEEF2;" d="M371.508,312.547c-9.355,0-18.159-2.385-25.849-6.569l20.646,34.01c2.37,3.904,8.036,3.904,10.406,0   l20.646-34.01C389.667,310.162,380.863,312.547,371.508,312.547z"/>
</g>















</svg>
